<svg xmlns="http://www.w3.org/2000/svg" viewBox="0 0 60 60" fill="none">
  <rect width="60" height="60" rx="12" fill="#6C3AED"/>
  <path d="M15 30c0-1.5 1-2.5 2-3.5 1.5-1.5 3-3 3-6.5 0-2.5 2-4 4-4s4 1.5 4 4c0 3.5 1.5 5 3 6.5 1 1 2 2 2 3.5s-1 2.5-2 3.5c-1.5 1.5-3 3-3 6.5 0 2.5-2 4-4 4s-4-1.5-4-4c0-3.5-1.5-5-3-6.5-1-1-2-2-2-3.5z" fill="#fff" opacity=".9"/>
  <path d="M35 30c0-1 .7-1.7 1.3-2.3 1-1 2-2.1 2-4.5 0-1.7 1.4-2.7 2.7-2.7s2.7 1 2.7 2.7c0 2.4 1 3.5 2 4.5.6.6 1.3 1.3 1.3 2.3s-.7 1.7-1.3 2.3c-1 1-2 2.1-2 4.5 0 1.7-1.4 2.7-2.7 2.7S38.3 38.5 38.3 36.8c0-2.4-1-3.5-2-4.5-.6-.6-1.3-1.3-1.3-2.3z" fill="#C4B5FD"/>
</svg>
